<?xml version="1.0" encoding="UTF-8"?>
<svg width="512" height="512" viewBox="0 0 512 512" xmlns="http://www.w3.org/2000/svg">
  <defs>
    <linearGradient id="appGradient" x1="0%" y1="0%" x2="100%" y2="100%">
      <stop offset="0%" style="stop-color:#00d4ff"/>
      <stop offset="50%" style="stop-color:#7b68ee"/>
      <stop offset="100%" style="stop-color:#9d4edd"/>
    </linearGradient>
    <linearGradient id="bgGradient" x1="0%" y1="0%" x2="100%" y2="100%">
      <stop offset="0%" style="stop-color:#1a1a2e"/>
      <stop offset="100%" style="stop-color:#0f0f1e"/>
    </linearGradient>
  </defs>
  
  <!-- Fondo con esquinas redondeadas para iOS -->
  <rect width="512" height="512" rx="90" fill="url(#bgGradient)"/>
  
  <!-- Marco decorativo -->
  <rect x="40" y="40" width="432" height="432" rx="60" 
        fill="none" 
        stroke="url(#appGradient)" 
        stroke-width="4" 
        opacity="0.3"/>
  
  <!-- Icono central: Corazón + Play -->
  <g transform="translate(256, 220)">
    <!-- Círculo de fondo -->
    <circle r="90" fill="url(#appGradient)" opacity="0.15"/>
    <circle r="80" fill="none" stroke="url(#appGradient)" stroke-width="6"/>
    
    <!-- Corazón K-Drama -->
    <path d="M-35,-12 C-50,-35 -80,-35 -80,-8 C-80,18 -35,55 0,75 C35,55 80,18 80,-8 C80,-35 50,-35 35,-12 C25,-25 -25,-25 -35,-12 Z" 
          fill="url(#appGradient)"/>
    
    <!-- Play button -->
    <polygon points="-15,0 20,-15 20,15" fill="#ffffff"/>
  </g>
  
  <!-- Texto DORASIA -->
  <text x="256" y="360" 
        font-family="Arial Black, Impact" 
        font-size="64" 
        font-weight="900" 
        text-anchor="middle" 
        fill="url(#appGradient)">
    DORAS
  </text>
  
  <text x="256" y="360" 
        font-family="Arial Black, Impact" 
        font-size="64" 
        font-weight="900" 
        text-anchor="middle">
    <tspan x="256" dy="0" fill="url(#appGradient)">DORAS</tspan><tspan fill="#00d4ff" font-size="72">IA</tspan>
  </text>
  
  <!-- Subtítulo -->
  <text x="256" y="410" 
        font-family="Arial" 
        font-size="24" 
        font-weight="600" 
        text-anchor="middle" 
        fill="#ffffff" 
        opacity="0.9"
        letter-spacing="1px">
    K-DRAMAS
  </text>
  
  <!-- Elementos decorativos -->
  <circle cx="120" cy="120" r="4" fill="#00d4ff" opacity="0.8"/>
  <circle cx="392" cy="140" r="3" fill="#7b68ee" opacity="0.7"/>
  <circle cx="370" cy="390" r="4" fill="#9d4edd" opacity="0.8"/>
  <circle cx="142" cy="410" r="3" fill="#00d4ff" opacity="0.6"/>
  
  <!-- Robot indicator -->
  <circle cx="420" cy="92" r="25" fill="url(#appGradient)" opacity="0.9"/>
  <text x="420" y="105" font-size="28" text-anchor="middle">🤖</text>
</svg>