<svg xmlns="http://www.w3.org/2000/svg" viewBox="0 0 512 512" width="512" height="512">
  <!-- Background Circle -->
  <circle cx="256" cy="256" r="256" fill="#1a1a2e"/>
  
  <!-- Gradient definitions -->
  <defs>
    <linearGradient id="grad1" x1="0%" y1="0%" x2="100%" y2="100%">
      <stop offset="0%" style="stop-color:#ff006e;stop-opacity:1" />
      <stop offset="100%" style="stop-color:#8338ec;stop-opacity:1" />
    </linearGradient>
    
    <linearGradient id="grad2" x1="0%" y1="0%" x2="100%" y2="100%">
      <stop offset="0%" style="stop-color:#06ffa5;stop-opacity:1" />
      <stop offset="100%" style="stop-color:#0099ff;stop-opacity:1" />
    </linearGradient>
  </defs>
  
  <!-- Letter D stylized -->
  <path d="M 140 160 L 140 352 Q 140 392 180 392 L 240 392 Q 320 392 320 312 L 320 240 Q 320 160 240 160 L 140 160" 
        fill="url(#grad1)" 
        stroke="white" 
        stroke-width="8"/>
  
  <!-- Korean flag inspired elements (Taegeuk) -->
  <circle cx="256" cy="256" r="60" fill="none" stroke="url(#grad2)" stroke-width="8"/>
  
  <!-- Upper half of Taegeuk -->
  <path d="M 256 196 A 30 30 0 0 1 256 256 A 30 30 0 0 0 256 316 A 60 60 0 0 0 256 196" 
        fill="#ff006e" opacity="0.8"/>
  
  <!-- Lower half of Taegeuk -->
  <path d="M 256 196 A 30 30 0 0 0 256 256 A 30 30 0 0 1 256 316 A 60 60 0 0 1 256 196" 
        fill="#0099ff" opacity="0.8"/>
  
  <!-- Decorative stars -->
  <g fill="white" opacity="0.6">
    <circle cx="380" cy="180" r="8"/>
    <circle cx="400" cy="220" r="6"/>
    <circle cx="380" cy="260" r="8"/>
    <circle cx="120" cy="320" r="6"/>
    <circle cx="100" cy="280" r="8"/>
  </g>
</svg>